<svg xmlns="http://www.w3.org/2000/svg" width="196" height="69" viewBox="0 0 196 69"><defs><clipPath id="yxvqa"><path d="M0 68.506h195.203V.9H0z"/></clipPath></defs><g><g><g><path fill="#fff" d="M0 68.506h195.203V.9H0z"/></g><g clip-path="url(#yxvqa)"><g><path fill="#fff" d="M188.993 7.192h6.21V.901h-6.21zm-11.149 0h6.21V.901h-6.21zm4.459 61.155h8.122V13.642h-8.122zM157.857 43.82c0 .399-7.325.558-13.457.558-4.618 0-8.122-.08-8.122-.239 0-.956 10.272-29.78 10.512-30.02zm-39.256 24.686h8.599l4.698-12.9 1.115-3.344h28.03l5.653 16.244h8.361c-.08-.399-4.619-13.696-9.794-28.269l-9.555-26.675h-17.36l-18.712 51.997z"/></g></g><g clip-path="url(#yxvqa)"><g><path fill="#fff" d="M0 46.773c0 14.565 8.17 21.733 23.505 21.733 15.337 0 23.506-7.168 23.506-21.733v-33.37h-8.323v33.062c0 10.172-4.933 14.565-15.183 14.565-10.403 0-15.182-4.393-15.182-14.642V13.403H0z"/></g></g><g clip-path="url(#yxvqa)"><g><path fill="#fff" d="M53.783 68.506h8.36V14.597L72.576 56.96l2.867 11.546h16.403l3.345-13.458c1.752-7.405 4.778-19.509 6.609-26.914l3.264-13.378v53.75h8.442V13.403H97.1l-6.61 27.312a1215.062 1215.062 0 0 1-6.848 27.074c-.159 0-3.185-12.263-6.768-27.153l-6.609-27.233H53.783z"/></g></g></g></g></svg>