<svg xmlns="http://www.w3.org/2000/svg" width="64" height="63" viewBox="0 0 64 63"><g><g><path d="M.631 31.424C.631 14.092 14.681.043 32.012.043c17.332 0 31.382 14.05 31.382 31.381s-14.05 31.381-31.382 31.381C14.681 62.805.631 48.755.631 31.424z"/></g><g><path fill="#fff" d="M49.35 20.67c-1.086.492-2.288.79-3.46.988.556-.092 1.374-1.101 1.702-1.509.5-.62.915-1.33 1.149-2.095.03-.06.051-.135-.009-.18-.075-.03-.122-.015-.182.015a17.677 17.677 0 0 1-4.104 1.571c-.12.03-.208 0-.283-.075-.12-.135-.232-.262-.359-.367a7.24 7.24 0 0 0-1.99-1.217 6.913 6.913 0 0 0-3.047-.491 7.266 7.266 0 0 0-2.893.817 7.42 7.42 0 0 0-2.333 1.906 7.152 7.152 0 0 0-1.393 2.79c-.24.983-.221 1.953-.075 2.947.023.165.008.187-.142.165-5.636-.839-10.308-2.856-14.1-7.177-.166-.189-.254-.189-.39.013-1.658 2.488-.853 6.486 1.22 8.45.277.262.56.524.867.762-.112.024-1.492-.127-2.722-.762-.165-.105-.246-.045-.261.142-.015.268.006.517.045.807.317 2.522 2.064 4.855 4.455 5.765.284.12.6.225.904.276-.545.12-1.105.204-2.668.082-.195-.037-.268.06-.195.247 1.174 3.202 3.709 4.153 5.608 4.696.253.045.509.045.762.105-.015.021-.03.021-.045.045-.63.96-2.812 1.674-3.83 2.028-1.847.646-3.86.938-5.816.745-.31-.045-.377-.043-.461 0-.086.054-.013.129.088.208.397.262.8.496 1.213.72a19.124 19.124 0 0 0 3.887 1.555c6.986 1.93 14.856.511 20.101-4.7 4.121-4.095 5.566-9.74 5.566-15.39 0-.222.26-.344.416-.46 1.071-.805 1.936-1.769 2.734-2.846a.863.863 0 0 0 .183-.545v-.03c0-.09-.002-.063-.142 0z"/></g></g></svg>