<svg xmlns="http://www.w3.org/2000/svg" width="128" height="44" viewBox="0 0 128 44"><defs><clipPath id="g30wa"><path d="M.462 44.005h127.076V-.005H.462z"/></clipPath></defs><g><g><g/><g clip-path="url(#g30wa)"><g><path d="M123.495 4.09h4.043V-.005h-4.043zm-7.257 0h4.043V-.005h-4.043zm2.902 39.812h5.288V8.289h-5.288zm-15.914-15.967c0 .26-4.769.363-8.76.363-3.007 0-5.288-.052-5.288-.155 0-.622 6.687-19.387 6.843-19.543zM77.67 44.005h5.598l3.059-8.398.726-2.176H105.3l3.68 10.574h5.443c-.051-.26-3.006-8.916-6.375-18.402l-6.22-17.366H90.525l-12.182 33.85z"/></g></g><g clip-path="url(#g30wa)"><g><path d="M.462 29.857c0 9.482 5.318 14.148 15.301 14.148 9.985 0 15.303-4.666 15.303-14.148V8.133h-5.419v21.524c0 6.622-3.21 9.482-9.884 9.482-6.772 0-9.883-2.86-9.883-9.533V8.133H.462z"/></g></g><g clip-path="url(#g30wa)"><g><path d="M35.474 44.005h5.443V8.911l6.791 27.578 1.866 7.516h10.679l2.177-8.76c1.14-4.821 3.11-12.7 4.302-17.522l2.125-8.709v34.991h5.496V8.133h-10.68l-4.302 17.78a791.007 791.007 0 0 1-4.458 17.626c-.103 0-2.073-7.983-4.406-17.677L46.205 8.133H35.474z"/></g></g></g></g></svg>