<svg xmlns="http://www.w3.org/2000/svg" width="64" height="63" viewBox="0 0 64 63"><g><g><path d="M.449 31.424C.449 14.093 14.499.043 31.83.043c17.332 0 31.382 14.05 31.382 31.381S49.162 62.805 31.83 62.805C14.5 62.805.45 48.755.45 31.424z"/></g><g><g><g><path fill="#fff" d="M41.57 19.552a2.157 2.157 0 1 0 0 4.315 2.157 2.157 0 0 0 0-4.315z"/></g><g><path fill="#fff" d="M31.981 37.184a5.81 5.81 0 0 1-5.804-5.804 5.81 5.81 0 0 1 5.804-5.805 5.81 5.81 0 0 1 5.804 5.805 5.81 5.81 0 0 1-5.804 5.804zm0-14.865c-4.996 0-9.062 4.065-9.062 9.061 0 4.997 4.066 9.062 9.062 9.062 4.997 0 9.062-4.065 9.062-9.062 0-4.996-4.065-9.061-9.062-9.061z"/></g><g><path fill="#fff" d="M39.175 16.445c4.185 0 7.592 3.404 7.592 7.589v14.691c0 4.185-3.407 7.591-7.592 7.591h-14.69c-4.186 0-7.59-3.406-7.59-7.591V24.034c0-4.185 3.404-7.59 7.59-7.59zm11.054 22.28V24.034c0-6.093-4.96-11.051-11.054-11.051h-14.69c-6.094 0-11.052 4.958-11.052 11.05v14.692c0 6.095 4.958 11.053 11.051 11.053h14.691c6.094 0 11.054-4.958 11.054-11.053z"/></g></g></g></g></svg>