<svg xmlns="http://www.w3.org/2000/svg" width="64" height="63" viewBox="0 0 64 63"><g><g><g>
  <path class="dark" d="M.939 31.556C.939 14.224 14.989.175 32.32.175c17.332 0 31.382 14.05 31.382 31.38 0 17.332-14.05 31.382-31.382 31.382C14.99 62.937.94 48.887.94 31.556z"/></g><g><path class="light" d="M13.127 41.695v-.603c.247-.285.506-.528.908-.607 3.159-.627 5.273-2.64 6.866-5.284 1.341-2.224 1.124-2.73-1.344-3.606-.142-.05-.288-.09-.427-.148-.532-.219-1.06-.453-1.502-.837-1.106-.96-.451-2.346.852-2.66.955-.229 1.783.385 2.708.5.618.076.865-.132.79-.789-.195-1.698-.191-3.402-.11-5.106.15-3.245 1.748-5.72 4.454-7.323 3.95-2.342 8.079-2.37 12.058-.037 2.483 1.458 4.086 3.662 4.434 6.62.225 1.923.135 3.85-.017 5.775-.065.837.105.99.933.796 1.026-.24 1.887-.768 2.954-.3.57.251 1.068.79 1.054 1.414-.011.427-.26.82-.582 1.1-.494.43-1.136.669-1.734.911-.464.187-.947.333-1.398.546-.933.435-1.201 1.013-.766 1.938 1.511 3.193 3.733 5.619 7.325 6.46.438.103.79.283 1.056.637v.603c-.34.7-.95 1.086-1.641 1.348-.702.266-1.408.563-2.162.612-1.04.066-1.59.522-1.749 1.605-.15 1.03-.462 1.177-1.513 1.093-.247-.02-.496-.067-.74-.11-2.061-.367-3.993-.158-5.686 1.209-.33.268-.698.491-1.054.723-2.884 1.87-5.84 2.084-8.853.328-.82-.478-1.6-1.032-2.395-1.551-.66-.432-1.37-.672-2.162-.792-1.247-.19-2.444.09-3.66.225-.624.069-1.227-.11-1.263-.755-.084-1.559-1.04-1.939-2.348-2.082-.61-.067-1.213-.316-1.788-.556-.627-.262-1.198-.633-1.498-1.297z"/></g></g></g></svg>
