<svg xmlns="http://www.w3.org/2000/svg" width="64" height="63" viewBox="0 0 64 63"><g><g><g><path class="dark" d="M.785 31.424C.785 14.093 14.835.043 32.166.043c17.332 0 31.382 14.05 31.382 31.381s-14.05 31.381-31.382 31.381C14.835 62.805.785 48.755.785 31.424z"/></g><g><path class="light" d="M48.461 27.807a9.64 9.64 0 0 1-.966.05 10.486 10.486 0 0 1-8.774-4.742v16.147c0 6.59-5.342 11.935-11.933 11.935s-11.935-5.344-11.935-11.935c0-6.592 5.344-11.934 11.935-11.934.25 0 .492.022.736.037v5.883c-.244-.03-.485-.075-.736-.075a6.09 6.09 0 1 0 0 12.182c3.363 0 6.336-2.65 6.336-6.016l.058-27.423h5.627a10.48 10.48 0 0 0 9.659 9.356v6.535"/></g></g></g></svg>
