<svg xmlns="http://www.w3.org/2000/svg" width="214" height="215" viewBox="0 0 214 215"><defs><clipPath id="tc7ka"><path d="M-.021 215.034H214.02V.182H-.02z"/></clipPath></defs><g><g><g><g/><g clip-path="url(#tc7ka)"><g><path d="M101.777 205.902c.068-2.5-2.048-4.649-4.767-4.918-2.927-.288-5.303 1.417-5.725 3.883zm-13.73.018c.486-4.936 4.31-7.99 9.187-7.51 4.789.472 7.926 4.364 7.46 9.093l-.102 1.035-13.597-1.342c-.108 1.392.314 2.568 1.264 3.527.95.96 2.177 1.528 3.714 1.68 2.217.218 4.119-.609 5.704-2.452l2.018 1.93c-1.998 2.4-4.665 3.42-7.975 3.093-5.144-.507-8.16-4.118-7.673-9.054zM84.3 190.327l2.97.732-5.186 21.052-2.971-.731zM73.834 200.35c.936-2.313-.551-5.127-3.36-6.265-3.082-1.248-5.994.008-7.255 3.118-1.282 3.166-.07 6.028 3.151 7.333 2.753 1.115 5.725.108 6.661-2.205zm-13.45-4.295c1.773-4.377 6.454-6.359 10.83-4.586 2.203.892 3.812 2.377 4.472 4.15l.055.023 2.877-7.103 2.835 1.15-8.14 20.096-2.67-1.082.669-1.652-.055-.023c-1.664.864-3.92.816-6.15-.087-4.542-1.84-6.53-6.426-4.723-10.886zm-5.12-3.457c1.902-2.765 1.272-5.938-1.444-7.807-2.691-1.85-5.88-1.305-7.782 1.461-1.902 2.765-1.272 5.938 1.42 7.79 2.716 1.868 5.904 1.32 7.806-1.444zm-11.746-8.08c2.676-3.89 7.747-4.764 11.834-1.953 4.113 2.72 5.149 7.975 2.433 11.767-2.57 3.892-7.847 4.805-11.859 1.937-4.087-2.811-5.085-7.86-2.408-11.75zm-4.215-12.331c-2.246-2.373-5.478-2.504-7.915-.197-2.439 2.307-2.485 5.541-.24 7.914 2.267 2.394 5.499 2.525 7.936.218zm-10.018-2.42c3.43-3.245 8.572-3.04 11.98.562 3.454 3.52 3.37 8.874-.078 12.015-3.325 3.27-8.677 3.06-12.002-.582-3.41-3.603-3.33-8.748.1-11.994zm-3.868-20.825l1.568 2.523-1.488.925.031.05c1.829.297 3.623 1.665 4.767 3.506 2.368 3.81 1.596 7.857-1.86 10.005l-7.921 4.923-1.615-2.598 7.492-4.658c2.447-1.52 2.989-4.025 1.468-6.471-1.631-2.625-4.409-3.38-6.756-1.922l-7.44 4.625-1.615-2.598 13.369-8.31z"/></g></g><g clip-path="url(#tc7ka)"><g><path d="M75.687 17.597c-.835.255-1.565.59-3.368 1.5l-15.405 7.778c-1.962.99-2.373 1.23-3.141 1.752l-1.085-2.148c.89-.348 1.513-.63 3.29-1.527l15.377-7.764c1.936-.976 2.48-1.285 3.234-1.766zm5.41 11.036c-1.596-1.353-2.551-2.377-3.813-4.037l1.304-1.072c.884 1.28 2.415 2.919 3.79 4.072zm3.028-2.164c-1.596-1.353-2.657-2.448-3.808-4.008l1.322-1.135c.972 1.414 2.81 3.386 3.801 4.13zm2.789-2.148c-.245-1.253-1.54-4.48-2.706-6.735-2.4-4.858-5.632-8.706-8.966-10.749.69-.65.978-1.038 1.489-1.985 4.68 3.354 8.908 9.52 11.5 16.762.345.991.564 1.493.754 1.849zm7.99-2.012c.054-.343.049-.524-.008-2.057-.396-8.546.873-14.604 4.148-19.691.882.645 1.254.844 2.161 1.152-1.478 2.043-2.354 3.908-3.101 6.596-.866 3.165-1.22 6.775-1.03 10.702.053 1.2.141 2.272.243 2.797.018.087.052.262.12.46zm17.127.987c.218-.695.3-1.224.434-2.583l1.94-17.836c-2.545.674-4.145 1.471-5.837 2.886-1.792 1.525-3.138 3.361-4.072 5.568-.541-.86-.752-1.149-1.486-1.878 1.784-3.256 3.977-5.518 6.691-7.01 1.388-.759 2.628-1.233 4.44-1.742.552-.153.552-.153.98-.26.37-.114.432-.137.713-.259l1.048 1.477c-.227.485-.28.718-.406 1.99l-1.883 17.273c-.189 1.922-.189 1.922-.14 2.642zm7.362.398c.192-.727.192-.727.43-2.525 1.026-7.986 1.478-10.15 2.895-13.026 1.277-2.649 2.89-4.49 5.834-6.796.516.827.785 1.123 1.617 1.772-2.614 1.682-4.42 3.653-5.666 6.305-1.17 2.481-1.966 6.313-2.582 12.55-.104 1.063-.11 1.421-.088 2.11zm8.479 2.965c-.663-2.028-.97-3.318-1.225-5.416l1.693-.281c.08 1.554.576 3.774 1.177 5.46zm3.717-.343c-.684-1.973-1.021-3.434-1.236-5.388l1.704-.309c.139 1.735.686 4.323 1.194 5.499zm18.936-17.87c-.353.599-.6 1.171-1.268 2.856l-6.514 17.256c-.633 1.762-.783 2.244-.903 2.897l-2.39-.901c.353-.598.58-1.115 1.23-2.839l1.962-5.196c-3.44-2.917-6.592-6.17-10.153-10.53l1.971-1.606c1.497 2.343 4.989 6.296 8.288 9.415.327.314.507.508.683.797l.067-.006c.105-.532.245-.987.507-1.682l3.157-8.364c.63-1.667.833-2.29.974-2.998zm21.877 29.722c-.61-.626-1.242-1.12-2.878-2.306L155.55 25.738c-1.78-1.29-2.182-1.545-2.998-1.989l1.412-1.948c.718.63 1.253 1.055 2.865 2.223l13.95 10.107c1.755 1.272 2.278 1.614 3.052 2.064zm-3.365 8.512c.399.025.812-.076 1.732-.35 3.59-1.063 6.868-1.613 10.223-1.731.098-2.124.366-4.8.754-7.418l2.32.058a45.75 45.75 0 0 0-.983 7.37c5.009.2 9.813 1.435 14.289 3.687-.413.82-.517 1.167-.666 2.27-3.261-1.773-5.452-2.578-8.672-3.247-1.9-.39-2.758-.468-5.072-.567-.085 4.007-.015 5.96.366 8.69l-1.998-.274c-.296-3.1-.397-5.142-.372-8.458-3.099.105-6.293.665-9.503 1.73l8.01 9.873c1.074 1.309 1.503 1.802 2.153 2.385l-1.732 1.449c-.404-.703-.732-1.164-1.432-2.048l-.498-.63-7.825-9.639c-.724-.866-.798-.96-1.372-1.3zm42.634 53.483c-.475-2.27-1.98-5.63-3.7-8.14-3.477-5.224-8.448-8.418-15.059-9.736.794-.828 1.008-1.166 1.425-2.08 5.493 1.478 9.381 3.62 12.702 7.034 2.561 2.668 4.273 5.48 6.216 10.183.31.76.408.984.766 1.677zm-18.474 1.205c1.46-3.47 2.587-5.53 4.308-7.99l2.074 1.214c-1.927 2.495-3.437 5.132-4.557 7.942zm-.895 5.014c.523.44.778.584 1.713 1.094 4.332 2.368 6.044 3.462 8.202 5.197 2.349-2.335 4.338-4.049 7.025-6.172l1.67 1.837c-2.165 1.367-4.243 3.073-7.05 5.81 3.95 3.524 6.698 7.436 9.114 12.898-.94.444-1.229.655-1.925 1.362-1.84-4.957-4.658-9.055-8.713-12.738-2.423 2.477-4.529 5.074-6.134 7.423l-1.42-1.633c2.03-2.724 3.15-4.106 5.901-7.177-2.05-1.605-4.074-2.88-6.543-4.167-1.73-.917-2.189-1.112-3.032-1.345zm-1.105 44.8c.444-.754.755-1.494 1.468-3.383l6.094-16.145c.777-2.056.917-2.512 1.13-3.415l2.251.85c-.419.858-.688 1.486-1.39 3.348l-6.085 16.117c-.766 2.028-.958 2.623-1.189 3.487zm-17.03 18.764c.757-.77 1.153-1.253 2.217-2.683l9.09-12.228c.656-.883.827-1.163.985-1.673l1.68-.12c.175.462.259.598 1.006 1.783 4.048 6.155 4.654 11.712 2.138 19.428-.904-.228-1.29-.256-2.407-.198 1.469-3.867 1.955-6.762 1.64-9.772-.291-2.845-1.258-5.229-3.375-8.505l-9.25 12.442c-.938 1.264-1.43 1.973-1.936 2.855zm-4.006-6.162c.657-.585 1.036-1.044 2.027-2.379l5.919-7.96c.993-1.336 1.323-1.83 1.694-2.628l1.835 1.364c-.573.573-1.022 1.127-1.962 2.391l-5.954 8.009c-.939 1.264-1.34 1.853-1.724 2.568zm-19.675 23.676l2.447-1.521.8 1.286.05-.031c.303-1.482 1.203-2.847 2.642-3.74.655-.408 1.425-.746 2.307-1.015l.95 2.767c-.933.3-1.408.491-2.04.883-1.942 1.208-2.331 3.338-.81 5.785l4.562 7.34-2.598 1.615zm-2.874 9.389l-.055.022c-.085.806-.887 1.588-3.022 2.953-2.75 1.746-3.63 2.881-3.131 4.089.556 1.345 1.766 1.552 3.934.655 2.471-1.02 4.066-3.382 3.374-5.057zm-8.947 8.292c-1.077-2.608.163-4.662 4.49-7.254 2.772-1.692 3.545-2.622 3.137-3.61-.51-1.236-2.157-1.488-4.161-.659-2.306.953-3.426 2.83-3.022 4.976l-2.928.535c-.349-1.623-.09-3.176.825-4.615.888-1.427 2.26-2.54 4.1-3.3 3.87-1.6 7.145-.672 8.428 2.43l4.095 9.91-2.663 1.1-.726-1.757-.055.022c-.405 1.743-2.069 3.394-4.347 4.336-3.322 1.373-6.072.55-7.173-2.114zm-13.67-6.325c-2.967.617-4.935 3.119-4.427 5.561l.435 2.094c.509 2.443 3.252 3.966 6.16 3.361 3.402-.707 5.107-3.306 4.412-6.65zm-3.145 12.606l.363 1.745-2.82.586-4.414-21.228 2.996-.623 1.56 7.503.058-.012c.966-1.627 2.816-2.8 5.142-3.284 4.623-.96 8.873 1.826 9.835 6.45.979 4.71-1.797 8.868-6.595 9.865-2.356.49-4.584.134-6.066-1.014zm-105.04-89.75l.746 2.873-1.695.441.015.058c1.657.827 2.964 2.666 3.51 4.765 1.129 4.34-.811 7.975-4.749 9l-9.026 2.347-.77-2.961 8.538-2.22c2.788-.725 4.049-2.956 3.324-5.744-.778-2.99-3.206-4.538-5.88-3.843l-8.48 2.206-.769-2.96zm-6.906-5.007c2.481-.324 4.274-2.748 4.114-5.476-.17-2.936-2.226-5.018-4.727-5.05zm-2.158-13.56c4.951-.29 8.565 3.01 8.85 7.904.28 4.803-3.074 8.51-7.818 8.786l-1.038.06-.795-13.64c-1.391.112-2.487.71-3.287 1.799-.8 1.088-1.17 2.389-1.08 3.931.13 2.224 1.244 3.973 3.311 5.252l-1.592 2.294c-2.681-1.6-4.105-4.075-4.298-7.396-.301-5.16 2.795-8.701 7.747-8.99zM20.418 76.37l-.549 2.798-1.545-.303-.011.058c1.041 1.325 1.421 3.245 1.032 5.227-.395 2.012-1.764 3.892-3.392 4.632l-.011.058c1.293 1.585 1.783 3.559 1.354 5.744-.761 3.876-3.863 6.264-7.361 5.578l-9.85-1.935.583-2.972 9.151 1.796c2.478.487 4.39-.772 4.865-3.191.475-2.42-.837-4.372-3.285-4.853l-9.152-1.796.561-2.857 9.152 1.797c2.419.475 4.412-.89 4.87-3.221.475-2.419-.837-4.371-3.285-4.853l-9.151-1.796.577-2.943zm-3.83-7.54l.025-.053c-.485-.65-.427-1.767.215-4.219.834-3.148.71-4.58-.477-5.128-1.32-.61-2.35.059-3.334 2.189-1.122 2.426-.69 5.243.956 6.004zm.941-12.161c2.562 1.184 3.046 3.535 1.627 8.375-.888 3.124-.824 4.332.147 4.78 1.213.561 2.593-.372 3.503-2.34 1.046-2.265.595-4.404-1.16-5.706l1.788-2.38c1.358.955 2.223 2.27 2.527 3.949.316 1.651.064 3.4-.77 5.206-1.757 3.801-4.793 5.344-7.84 3.936l-9.733-4.498 1.208-2.615 1.726.797.025-.054c-.885-1.554-.784-3.896.25-6.134 1.508-3.262 4.087-4.524 6.702-3.316zm11.794-5.326c-1.62 2.237-1.512 4.113.34 5.455 1.852 1.341 3.585.873 5.276-1.46l4.025-5.556-5.58-4.043zm-3.19-.405l-9.758-.505 2.16-2.982 9.623.59 2.893-3.993-6.59-4.774 1.881-2.598L43.18 48.875l-6.082 8.395c-2.631 3.631-6.165 4.409-9.34 2.109-2.886-2.092-3.466-5.19-1.6-8.422z"/></g></g></g></g></g></svg>